<svg xmlns="http://www.w3.org/2000/svg" width="90.774" height="90.791" viewBox="0 0 90.774 90.791">
  <g id="instagram_1_" data-name="instagram (1)" transform="translate(-0.449)">
    <path id="Path_455" data-name="Path 455" d="M90.992,26.693a33.176,33.176,0,0,0-2.11-11.014A23.257,23.257,0,0,0,75.6,2.394,33.26,33.26,0,0,0,64.583.284C59.723.053,58.18,0,45.853,0S31.983.053,27.141.266a33.185,33.185,0,0,0-11.014,2.11,22.152,22.152,0,0,0-8.053,5.25,22.353,22.353,0,0,0-5.232,8.035A33.264,33.264,0,0,0,.733,26.675C.5,31.535.449,33.078.449,45.4S.5,59.274.715,64.116A33.174,33.174,0,0,0,2.826,75.131,23.254,23.254,0,0,0,16.11,88.415a33.265,33.265,0,0,0,11.014,2.11c4.841.213,6.385.266,18.712.266s13.869-.053,18.712-.266a33.167,33.167,0,0,0,11.014-2.11A23.223,23.223,0,0,0,88.846,75.131a33.287,33.287,0,0,0,2.11-11.014c.213-4.842.266-6.385.266-18.712s-.018-13.87-.231-18.712ZM82.816,63.761a24.885,24.885,0,0,1-1.561,8.425,15.061,15.061,0,0,1-8.62,8.62,24.973,24.973,0,0,1-8.425,1.56c-4.789.213-6.225.266-18.339.266S32.3,82.58,27.532,82.366a24.872,24.872,0,0,1-8.425-1.56,13.971,13.971,0,0,1-5.214-3.388A14.115,14.115,0,0,1,10.5,72.2a24.977,24.977,0,0,1-1.56-8.425c-.213-4.789-.266-6.226-.266-18.339s.053-13.568.266-18.339a24.872,24.872,0,0,1,1.56-8.425,13.8,13.8,0,0,1,3.406-5.215,14.094,14.094,0,0,1,5.214-3.387A24.99,24.99,0,0,1,27.55,8.514c4.789-.213,6.226-.266,18.339-.266,12.132,0,13.568.053,18.34.266a24.885,24.885,0,0,1,8.425,1.561,13.961,13.961,0,0,1,5.214,3.387,14.112,14.112,0,0,1,3.388,5.215A24.986,24.986,0,0,1,82.816,27.1c.213,4.789.266,6.225.266,18.339s-.053,13.533-.266,18.322Zm0,0" transform="translate(0 0)"/>
    <path id="Path_456" data-name="Path 456" d="M148.272,124.5a23.323,23.323,0,1,0,23.323,23.323A23.329,23.329,0,0,0,148.272,124.5Zm0,38.452A15.129,15.129,0,1,1,163.4,147.823,15.131,15.131,0,0,1,148.272,162.952Zm0,0" transform="translate(-102.419 -102.419)"/>
    <path id="Path_457" data-name="Path 457" d="M373.34,94.047a5.445,5.445,0,1,1-5.446-5.445,5.445,5.445,0,0,1,5.446,5.445Zm0,0" transform="translate(-297.796 -72.887)"/>
  </g>
</svg>
