<svg xmlns="http://www.w3.org/2000/svg" width="105.093" height="85.388" viewBox="0 0 105.093 85.388">
  <g id="twitter_1_" data-name="twitter (1)" transform="translate(0 -48)">
    <g id="Group_503" data-name="Group 503" transform="translate(0 48)">
      <path id="Path_447" data-name="Path 447" d="M105.093,58.109a44.919,44.919,0,0,1-12.414,3.4A21.424,21.424,0,0,0,102.157,49.6a43.056,43.056,0,0,1-13.662,5.215A21.543,21.543,0,0,0,51.226,69.551a22.184,22.184,0,0,0,.5,4.913A60.983,60.983,0,0,1,7.317,51.928a21.551,21.551,0,0,0,6.621,28.8A21.277,21.277,0,0,1,4.2,78.07v.236a21.644,21.644,0,0,0,17.261,21.17,21.5,21.5,0,0,1-5.649.709,19.05,19.05,0,0,1-4.079-.368,21.75,21.75,0,0,0,20.132,15.009,43.291,43.291,0,0,1-26.713,9.189,40.353,40.353,0,0,1-5.156-.3,60.655,60.655,0,0,0,33.052,9.669c39.646,0,61.322-32.841,61.322-61.308,0-.952-.033-1.872-.079-2.785A42.981,42.981,0,0,0,105.093,58.109Z" transform="translate(0 -48)"/>
    </g>
  </g>
</svg>
